<?xml version="1.0" encoding="UTF-8"?>
<!DOCTYPE svg  PUBLIC '-//W3C//DTD SVG 1.1//EN'  'http://www.w3.org/Graphics/SVG/1.1/DTD/svg11.dtd'>
<svg width="800px" height="800px" clip-rule="evenodd" fill="currentColor" fill-rule="evenodd" image-rendering="optimizeQuality" shape-rendering="geometricPrecision" text-rendering="geometricPrecision" version="1.1" viewBox="0 0 846.66 846.66" xml:space="preserve" xmlns="http://www.w3.org/2000/svg">  <defs>  </defs>    <path class="fil0" d="m305.08 127c-27.16 0-27.16-41.29 0-41.29h60.83v-54.93c0-11.4 9.25-20.64 20.65-20.64h190.32c11.4 0 20.65 9.24 20.65 20.64v54.93h106.1c11.4 0 20.65 9.25 20.65 20.65v709.52c0 11.4-9.25 20.64-20.65 20.64h-560.6c-11.4 0-20.65-9.24-20.65-20.64v-709.52c0-11.4 9.25-20.65 20.65-20.65h67.88c27.15 0 27.15 41.29 0 41.29h-47.24v668.23h519.32v-668.23h-377.91zm102.12-41.29h149.04v-34.28h-149.04v34.28zm-191.92 480.71c-27.15 0-27.15-41.29 0-41.29h188.46c27.16 0 27.16 41.29 0 41.29h-188.46zm0 156.73c-27.15 0-27.15-41.29 0-41.29h188.46c27.16 0 27.16 41.29 0 41.29h-188.46zm0-78.36c-27.15 0-27.15-41.29 0-41.29h188.46c27.16 0 27.16 41.29 0 41.29h-188.46zm294.81-101.94h121.29c11.4 0 20.64 9.25 20.64 20.65v121.28c0 11.4-9.24 20.65-20.64 20.65h-121.29c-11.4 0-20.64-9.25-20.64-20.65v-121.28c0-11.4 9.24-20.65 20.64-20.65zm100.64 41.29h-79.99v80h79.99v-80zm-243.28-252.09c13.62 0.23 24.62-11.16 24.62-24.62 0-13.72-10.9-24.63-24.62-24.63-13.69 0-24.62 10.94-24.62 24.63 0 13.48 10.98 24.85 24.62 24.62zm20.65 37.98v59.74c47.81-9.73 82.31-51.95 82.31-100.88 0-56.87-46.09-102.96-102.96-102.96-56.86 0-102.95 46.09-102.95 102.96 0 48.93 34.49 91.15 82.31 100.88v-59.75c-26.78-8.89-45.28-34.08-45.28-62.59 0-36.3 29.62-65.92 65.92-65.92 36.29 0 65.92 29.63 65.92 65.92 0 28.49-18.49 53.73-45.27 62.6zm-20.65-185.39c79.67 0 144.25 64.58 144.25 144.25 0 79.66-64.58 144.24-144.25 144.24-79.66 0-144.24-64.58-144.24-144.24 0-79.67 64.58-144.25 144.24-144.25z"/>    </svg>
